<?xml version="1.0" standalone="no"?>
<!DOCTYPE svg PUBLIC "-//W3C//DTD SVG 20010904//EN"
 "http://www.w3.org/TR/2001/REC-SVG-20010904/DTD/svg10.dtd">
<svg version="1.0" xmlns="http://www.w3.org/2000/svg"
 width="512.000000pt" height="512.000000pt" viewBox="0 0 512.000000 512.000000"
 preserveAspectRatio="xMidYMid meet">

<g transform="translate(0.000000,512.000000) scale(0.100000,-0.100000)"
fill="#000000" stroke="none">
<path d="M1060 3595 c-170 -27 -356 -110 -493 -220 l-67 -55 -191 0 c-155 0
-197 -3 -225 -16 -76 -36 -105 -129 -63 -203 32 -58 84 -81 183 -81 71 0 77
-2 71 -17 -177 -410 -105 -849 192 -1164 261 -277 662 -391 1028 -292 298 80
545 290 680 576 75 158 90 233 89 442 -1 166 -3 187 -28 270 -15 50 -29 99
-32 111 -5 17 6 29 55 62 96 64 176 87 301 87 125 0 206 -24 301 -87 49 -33
60 -45 55 -62 -3 -12 -17 -61 -32 -111 -25 -83 -27 -104 -28 -270 0 -158 2
-190 22 -265 93 -342 350 -619 679 -731 249 -85 509 -75 753 30 383 165 630
541 630 961 0 151 -31 295 -95 443 -6 15 0 17 71 17 99 0 151 23 183 81 42 74
13 167 -63 203 -28 13 -70 16 -225 16 l-191 0 -58 47 c-154 126 -318 199 -512
228 -119 19 -190 19 -310 1 -228 -35 -431 -140 -599 -309 l-64 -65 -46 33
c-269 191 -673 191 -942 0 l-46 -33 -64 65 c-246 249 -579 361 -919 308z m355
-310 c247 -65 453 -267 531 -520 27 -86 27 -324 0 -410 -79 -255 -282 -453
-536 -521 -89 -24 -281 -24 -370 0 -331 90 -560 386 -560 726 0 373 269 683
645 744 54 8 229 -3 290 -19z m2670 -1 c147 -39 310 -147 400 -265 101 -134
155 -294 155 -459 0 -340 -229 -636 -560 -726 -89 -24 -281 -24 -370 0 -216
58 -393 207 -491 411 -49 101 -69 192 -69 321 0 368 270 677 645 738 54 8 229
-3 290 -20z"/>
</g>
</svg>
