<?xml version="1.0" standalone="no"?>
<!DOCTYPE svg PUBLIC "-//W3C//DTD SVG 20010904//EN" "http://www.w3.org/TR/2001/REC-SVG-20010904/DTD/svg10.dtd">
<svg version="1.0" xmlns="http://www.w3.org/2000/svg" width="128.000000pt" height="128.000000pt" viewBox="0 0 128.000000 128.000000" preserveAspectRatio="xMidYMid meet">

    <g transform="translate(0.000000,128.000000) scale(0.100000,-0.100000)" fill="#fdfdfd" stroke="none">
        <path d="M533 1240 c-217 -39 -409 -211 -476 -425 -16 -53 -21 -95 -21 -175 0
-171 48 -291 165 -415 127 -133 260 -190 444 -189 92 0 122 5 183 27 191 67
331 210 393 399 32 100 33 252 2 353 -58 187 -218 348 -402 406 -75 23 -214
32 -288 19z m222 -65 c105 -22 189 -69 270 -150 219 -219 219 -551 0 -770 -44
-45 -94 -82 -135 -103 -217 -109 -463 -69 -635 103 -219 219 -219 551 0 770
137 137 311 190 500 150z" />
        <path d="M581 810 c-166 -66 -309 -125 -317 -131 -17 -14 -18 -53 -1 -67 6 -5
44 -20 84 -33 l72 -23 33 -100 c40 -124 56 -132 123 -66 l43 42 74 -56 c41
-31 84 -56 95 -56 41 0 52 32 107 303 47 236 51 269 39 287 -8 11 -22 20 -31
20 -9 -1 -154 -55 -321 -120z m264 -187 c-33 -165 -56 -257 -63 -256 -6 2 -59
40 -117 85 -85 65 -103 84 -93 93 7 7 65 59 128 115 63 57 119 110 123 117 12
19 1 43 -19 43 -9 0 -95 -50 -192 -112 l-174 -111 -70 22 c-38 13 -67 26 -63
29 8 8 565 229 581 231 7 1 -9 -97 -41 -256z m-276 -156 c8 -11 6 -18 -9 -32
-20 -18 -20 -17 -20 13 0 34 10 41 29 19z" />
    </g>
</svg>