<?xml version="1.0" standalone="no"?>
<!DOCTYPE svg PUBLIC "-//W3C//DTD SVG 20010904//EN" "http://www.w3.org/TR/2001/REC-SVG-20010904/DTD/svg10.dtd">
<svg version="1.0" xmlns="http://www.w3.org/2000/svg" width="128.000000pt" height="128.000000pt" viewBox="0 0 128.000000 128.000000" preserveAspectRatio="xMidYMid meet">

    <g transform="translate(0.000000,128.000000) scale(0.100000,-0.100000)" fill="#fdfdfd" stroke="none">
        <path d="M310 1240 c-104 -14 -143 -30 -191 -79 -79 -78 -93 -174 -87 -586 4
-261 7 -297 26 -355 28 -86 76 -134 163 -162 57 -19 94 -22 352 -26 300 -4
443 5 513 34 66 27 112 80 137 159 21 67 22 87 22 415 0 328 -1 348 -22 415
-37 118 -103 166 -256 185 -91 11 -572 11 -657 0z m107 -465 c36 -87 100 -180
123 -180 22 0 26 165 5 207 -28 56 -24 59 73 56 l87 -3 5 -109 c3 -69 9 -111
16 -113 18 -6 82 74 124 152 l37 70 69 0 69 0 -2 -29 c-1 -16 -25 -65 -54
-110 -28 -45 -56 -88 -62 -98 -9 -13 -1 -27 43 -74 121 -133 124 -164 17 -164
l-60 0 -73 70 c-52 50 -79 70 -98 70 -25 0 -26 -2 -26 -59 0 -74 -12 -86 -80
-78 -138 16 -252 123 -347 322 -19 41 -37 92 -40 115 l-6 41 73 -3 73 -3 34
-80z" />
    </g>
</svg>